<svg width="32" height="32" viewBox="0 0 32 32" fill="none" xmlns="http://www.w3.org/2000/svg">
<path d="M25.6974 8.58826C27.6154 10.5062 28.9215 12.9499 29.4507 15.6101C29.9799 18.2705 29.7083 21.0279 28.6702 23.5339C27.6322 26.0399 25.8745 28.1817 23.6191 29.6887C21.3639 31.1956 18.7124 32 15.9999 32C13.2875 32 10.636 31.1956 8.38063 29.6887C6.12538 28.1817 4.36763 26.0399 3.32955 23.5338C2.29159 21.0279 2.02 18.2705 2.54917 15.6101C3.07835 12.9499 4.38448 10.5062 6.30245 8.58826L10.1815 12.4672C9.03066 13.618 8.24698 15.0841 7.92944 16.6804C7.612 18.2766 7.77488 19.9311 8.3977 21.4346C9.02053 22.9382 10.0752 24.2233 11.4284 25.1274C12.7816 26.0316 14.3724 26.5142 15.9999 26.5142C17.6273 26.5142 19.2183 26.0316 20.5714 25.1274C21.9246 24.2233 22.9793 22.9382 23.6022 21.4346C24.2249 19.9311 24.3879 18.2766 24.0703 16.6804C23.7529 15.0841 22.9692 13.618 21.8184 12.4672L25.6974 8.58826Z" fill="#939393"/>
<path d="M15.9999 11.4286H13.7143L11.4285 3.42858L15.9999 0V11.4286Z" fill="#7C3BC2"/>
<path d="M15.9999 11.4286H18.2857L20.5713 3.42858L15.9999 0V11.4286Z" fill="#A34DFF"/>
<path d="M25.6974 8.58826C27.6154 10.5062 28.9215 12.9499 29.4507 15.6101C29.9799 18.2705 29.7083 21.0279 28.6702 23.5339C27.6322 26.0399 25.8745 28.1817 23.6191 29.6887C21.3639 31.1956 18.7124 32 15.9999 32C13.2875 32 10.636 31.1956 8.38063 29.6887C6.12538 28.1817 4.36763 26.0399 3.32955 23.5338C2.29159 21.0279 2.02 18.2705 2.54917 15.6101C3.07835 12.9499 4.38448 10.5062 6.30245 8.58826L8.24197 10.5277C6.70757 12.0621 5.66267 14.017 5.23931 16.1453C4.81595 18.2735 5.03323 20.4794 5.86362 22.4842C6.69402 24.489 8.10031 26.2025 9.90458 27.4081C11.7087 28.6136 13.83 29.257 15.9999 29.257C18.1698 29.2571 20.291 28.6136 22.0953 27.4081C23.8995 26.2025 25.3057 24.489 26.1361 22.4842C26.9666 20.4794 27.1838 18.2735 26.7606 16.1453C26.3372 14.017 25.2923 12.0621 23.7579 10.5277L25.6974 8.58826Z" fill="#7C3BC2"/>
<path d="M25.6974 8.58826C27.6154 10.5062 28.9215 12.9499 29.4507 15.6101C29.9799 18.2705 29.7083 21.0279 28.6702 23.5338C27.6322 26.0399 25.8745 28.1817 23.6191 29.6887C21.3639 31.1956 18.7124 32 15.9999 32V29.257C18.1698 29.257 20.2911 28.6136 22.0953 27.4081C23.8995 26.2025 25.3057 24.489 26.1361 22.4842C26.9666 20.4794 27.1838 18.2735 26.7606 16.1453C26.3372 14.017 25.2923 12.0621 23.7579 10.5277L25.6974 8.58826Z" fill="#A34DFF"/>
<path d="M15.9999 18.2856V22.8571L13.7143 20.5714V18.2856H15.9999Z" fill="#7C3BC2"/>
<path d="M15.9999 18.2856V22.8571L18.2857 20.5714V18.2856H15.9999Z" fill="#A34DFF"/>
<path d="M19.4285 16H12.5713V13.7143H19.4285V16Z" fill="white"/>
</svg>
